<svg width="36" height="18" viewBox="0 0 36 18" fill="none" xmlns="http://www.w3.org/2000/svg">
<path d="M34.1135 10.6253L31.84 11.9379L30.7849 10.1103L33.0556 8.79928C33.0555 8.79921 33.0555 8.79907 33.0554 8.79893C31.7062 6.75609 29.9532 5.00378 27.911 3.65456C27.911 3.65448 27.9109 3.65448 27.9108 3.65441L26.605 5.91616L24.7774 4.86098L26.0848 2.59656C23.9484 1.51964 21.5701 0.85628 19.0553 0.709961V3.46582H16.9449V0.709961C14.43 0.85628 12.0517 1.51964 9.91534 2.59656L11.2227 4.86098L9.39513 5.91616L8.08931 3.65441C8.08924 3.65448 8.08917 3.65448 8.0891 3.65456C6.04697 5.00378 4.29396 6.75609 2.94473 8.79893C2.94466 8.79907 2.94459 8.79914 2.94452 8.79928L5.21527 10.1103L4.16009 11.9379L1.88667 10.6253C0.809606 12.7616 0.146319 15.1399 0 17.6547H5.70502C6.24246 11.3426 11.5514 6.3706 18 6.3706C24.4486 6.3706 29.7575 11.3426 30.295 17.6547H36C35.8537 15.1399 35.1904 12.7616 34.1135 10.6253Z" fill="#1E3747"/>
</svg>
